<svg width="60" height="60" viewBox="0 0 60 60" fill="none" xmlns="http://www.w3.org/2000/svg">
<rect width="60" height="60" rx="10" fill="url(#paint0_linear_1_163)"/>
<path fill-rule="evenodd" clip-rule="evenodd" d="M12 20.7426C12 18.4239 12.9211 16.2002 14.5606 14.5606C16.2002 12.9211 18.4239 12 20.7426 12H30C30.4774 12 30.9352 12.1896 31.2728 12.5272C31.6104 12.8648 31.8 13.3226 31.8 13.8C31.8 14.2774 31.6104 14.7352 31.2728 15.0728C30.9352 15.4104 30.4774 15.6 30 15.6H20.7426C19.3787 15.6 18.0707 16.1418 17.1062 17.1062C16.1418 18.0707 15.6 19.3787 15.6 20.7426V39.2574C15.6 40.6213 16.1418 41.9293 17.1062 42.8938C18.0707 43.8582 19.3787 44.4 20.7426 44.4H39.2574C40.6213 44.4 41.9293 43.8582 42.8938 42.8938C43.8582 41.9293 44.4 40.6213 44.4 39.2574V30C44.4 29.5226 44.5896 29.0648 44.9272 28.7272C45.2648 28.3896 45.7226 28.2 46.2 28.2C46.6774 28.2 47.1352 28.3896 47.4728 28.7272C47.8104 29.0648 48 29.5226 48 30V39.2574C48 41.5761 47.0789 43.7998 45.4394 45.4394C43.7998 47.0789 41.5761 48 39.2574 48H20.7426C18.4239 48 16.2002 47.0789 14.5606 45.4394C12.9211 43.7998 12 41.5761 12 39.2574V20.7426Z" fill="white"/>
<path fill-rule="evenodd" clip-rule="evenodd" d="M35.6467 32.1939L31.6777 34.5879L29.8183 31.5045L33.7873 29.1105L33.7927 29.1069C33.9449 29.0153 34.0851 28.9053 34.2103 28.7793L43.2283 19.7145C43.3187 19.6235 43.4057 19.5292 43.4893 19.4319C44.0851 18.7371 44.9671 17.3619 43.8997 16.2891C42.9979 15.3819 41.7055 16.2387 40.8685 16.9749C40.644 17.1729 40.4278 17.3801 40.2205 17.5959L40.1593 17.6571L31.2673 26.5941C31.0562 26.804 30.8908 27.0553 30.7813 27.3321L29.2981 31.0635C29.27 31.1338 29.2647 31.211 29.283 31.2844C29.3013 31.3578 29.3422 31.4236 29.4 31.4724C29.4578 31.5212 29.5295 31.5506 29.6049 31.5564C29.6803 31.5621 29.7538 31.544 29.8183 31.5045L31.6777 34.5879C28.4287 36.5463 24.5497 33.2559 25.9537 29.7315L27.4387 26.0019C27.7279 25.2731 28.1628 24.611 28.7167 24.0561L37.6069 15.1173L37.6591 15.0651C37.9237 14.7951 38.8129 13.8843 39.8911 13.2291C40.4797 12.8745 41.4193 12.4047 42.5803 12.3147C43.9123 12.2085 45.3343 12.6279 46.4503 13.7493C47.3045 14.5932 47.8417 15.7057 47.9713 16.8993C48.0605 17.8298 47.9183 18.7678 47.5573 19.6299C47.0353 20.9205 46.1641 21.8691 45.7807 22.2525L36.7627 31.3173C36.4267 31.6545 36.0547 31.9467 35.6467 32.1939ZM43.6621 19.3671C43.6621 19.3671 43.6549 19.3725 43.6387 19.3779L43.6621 19.3671Z" fill="white"/>
<defs>
<linearGradient id="paint0_linear_1_163" x1="30" y1="0" x2="30" y2="60" gradientUnits="userSpaceOnUse">
<stop stop-color="#1BC440"/>
<stop offset="1" stop-color="#43B805"/>
</linearGradient>
</defs>
</svg>
